<svg width="50" height="48" viewBox="0 0 50 48" fill="none" xmlns="http://www.w3.org/2000/svg">
<path fill-rule="evenodd" clip-rule="evenodd" d="M13.9721 10.9391L13.925 10.895L13.8809 10.8479C13.7289 10.6858 13.4785 10.52 12.88 10.52C12.2847 10.52 11.9826 10.6859 11.7742 10.8942C11.7537 10.9147 11.46 11.2863 11.46 12.66V35.34C11.46 36.5522 11.6888 37.0314 11.7895 37.1748C11.9939 37.3414 12.3085 37.48 12.88 37.48C13.5168 37.48 13.7821 37.3094 13.9258 37.1658C14.0045 37.0871 14.3 36.6692 14.3 35.34V12.66C14.3 11.3127 13.9969 10.9623 13.9721 10.9391ZM10.36 38.58C9.75999 37.94 9.45999 36.86 9.45999 35.34V12.66C9.45999 11.14 9.75999 10.08 10.36 9.48C11 8.84 11.84 8.52 12.88 8.52C13.92 8.52 14.74 8.84 15.34 9.48C15.98 10.08 16.3 11.14 16.3 12.66V35.34C16.3 36.86 15.98 37.94 15.34 38.58C14.74 39.18 13.92 39.48 12.88 39.48C11.84 39.48 11 39.18 10.36 38.58ZM21.7735 44.1538L21.766 44.1617C19.5639 46.4662 16.4934 47.48 12.88 47.48C9.26654 47.48 6.19604 46.4662 3.994 44.1617L3.98642 44.1538L3.97893 44.1458C1.80634 41.8216 0.859985 38.6465 0.859985 34.92V13.08C0.859985 9.36103 1.80294 6.19628 3.98644 3.90621C6.18516 1.55921 9.25798 0.520004 12.88 0.520004C16.502 0.520004 19.5748 1.55919 21.7735 3.90617C23.957 6.19624 24.9 9.36101 24.9 13.08V34.92C24.9 38.6465 23.9536 41.8216 21.781 44.1458L21.7735 44.1538ZM20.32 5.28C18.6 3.44 16.12 2.52 12.88 2.52C9.63999 2.52 7.15999 3.44 5.43999 5.28C3.71999 7.08 2.85999 9.68 2.85999 13.08V34.92C2.85999 38.32 3.71999 40.94 5.43999 42.78C7.15999 44.58 9.63999 45.48 12.88 45.48C16.12 45.48 18.6 44.58 20.32 42.78C22.04 40.94 22.9 38.32 22.9 34.92V13.08C22.9 9.68 22.04 7.08 20.32 5.28ZM34.269 6.28H36.269C37.4269 6.28 38.2199 6.15025 38.7284 5.97229L38.7424 5.96736L38.7566 5.96264C39.3932 5.75044 39.8062 5.49619 40.0725 5.25039C40.4128 4.93627 40.6871 4.57175 40.9002 4.14558C41.1754 3.59515 41.4198 3.00315 41.6317 2.36755L42.0875 1H49.969V47H39.369V14.96H34.269V6.28ZM41.369 12.96V45H47.969V3H43.529C43.289 3.72 43.009 4.4 42.689 5.04C42.369 5.68 41.949 6.24 41.429 6.72C40.909 7.2 40.229 7.58 39.389 7.86C38.589 8.14 37.549 8.28 36.269 8.28V12.96H41.369Z" fill="url(#paint0_linear)"/>
<defs>
<linearGradient id="paint0_linear" x1="30" y1="-2.54615e-08" x2="30" y2="48" gradientUnits="userSpaceOnUse">
<stop stop-color="#F2C94C"/>
<stop offset="1" stop-color="#F2C94C" stop-opacity="0.5"/>
</linearGradient>
</defs>
</svg>
