<svg width="54" height="48" viewBox="0 0 54 48" fill="none" xmlns="http://www.w3.org/2000/svg">
<path fill-rule="evenodd" clip-rule="evenodd" d="M11.8708 10.8011C11.7411 10.9455 11.46 11.4084 11.46 12.66V35.34C11.46 36.5916 11.7411 37.0545 11.8708 37.1989C11.9615 37.3 12.1844 37.48 12.88 37.48C13.5756 37.48 13.7985 37.3 13.8892 37.1989C14.0189 37.0545 14.3 36.5916 14.3 35.34V12.66C14.3 11.4084 14.0189 10.9455 13.8892 10.8011C13.7985 10.7 13.5756 10.52 12.88 10.52C12.1844 10.52 11.9615 10.7 11.8708 10.8011ZM3.98394 44.0911C1.83518 41.8092 0.859985 38.6137 0.859985 34.92V13.08C0.859985 9.38627 1.83518 6.19077 3.98394 3.9089C6.15024 1.6084 9.24155 0.520004 12.88 0.520004C16.5184 0.520004 19.6097 1.6084 21.776 3.9089C23.9248 6.19077 24.9 9.38627 24.9 13.08V34.92C24.9 38.6137 23.9248 41.8092 21.776 44.0911C19.6097 46.3916 16.5184 47.48 12.88 47.48C9.24155 47.48 6.15024 46.3916 3.98394 44.0911ZM30.189 47V39.84C30.189 32.8519 33.9543 28.7416 37.1937 25.2052L37.2542 25.1391C40.558 21.5322 43.269 18.5179 43.269 13.32C43.269 11.5782 42.9481 10.9525 42.7958 10.7655C42.7349 10.6907 42.5883 10.52 41.849 10.52C41.1534 10.52 40.9306 10.7 40.8398 10.8011C40.7102 10.9455 40.429 11.4084 40.429 12.66V19.16H30.189V13.08C30.189 9.41173 31.106 6.21805 33.2047 3.92855C35.3298 1.61033 38.3887 0.520004 42.029 0.520004C45.6694 0.520004 48.7283 1.61033 50.8534 3.92855C52.9521 6.21805 53.869 9.41173 53.869 13.08C53.869 20.4322 50.1715 25.4333 46.8021 29.2719C46.2144 29.9414 45.6556 30.5562 45.1281 31.1365C44.083 32.2862 43.1608 33.3008 42.3805 34.3381C41.6133 35.3582 41.1324 36.2197 40.8988 37H53.269V47H30.189ZM38.789 37.2902C38.7496 37.5575 38.729 37.8272 38.729 38.1C38.729 38.4 38.729 38.7 38.789 39H51.269V45H32.189V39.84C32.189 33.6297 35.4912 30.0248 38.7771 26.4375C42.031 22.8852 45.269 19.3503 45.269 13.32C45.269 9.54 43.949 8.52 41.849 8.52C39.749 8.52 38.429 9.66 38.429 12.66V17.16H32.189V13.08C32.189 6.36 35.549 2.52 42.029 2.52C48.509 2.52 51.869 6.36 51.869 13.08C51.869 20.7411 47.4429 25.613 43.7283 29.7018C41.3877 32.2782 39.3295 34.5437 38.8394 37C38.8202 37.0964 38.8034 37.1932 38.789 37.2902ZM12.88 8.52C10.78 8.52 9.45999 9.66 9.45999 12.66V35.34C9.45999 38.34 10.78 39.48 12.88 39.48C14.98 39.48 16.3 38.34 16.3 35.34V12.66C16.3 9.66 14.98 8.52 12.88 8.52ZM12.88 45.48C6.39999 45.48 2.85999 41.64 2.85999 34.92V13.08C2.85999 6.36 6.39999 2.52 12.88 2.52C19.36 2.52 22.9 6.36 22.9 13.08V34.92C22.9 41.64 19.36 45.48 12.88 45.48Z" fill="url(#paint0_linear)"/>
<defs>
<linearGradient id="paint0_linear" x1="30" y1="-2.54615e-08" x2="30" y2="48" gradientUnits="userSpaceOnUse">
<stop stop-color="#F2C94C"/>
<stop offset="1" stop-color="#F2C94C" stop-opacity="0.5"/>
</linearGradient>
</defs>
</svg>
