<svg width="13" height="11" viewBox="0 0 13 11" fill="none" xmlns="http://www.w3.org/2000/svg">
<path d="M10.9981 6.75V10.5C10.9981 10.6354 10.9486 10.7526 10.8496 10.8516C10.7507 10.9505 10.6335 11 10.4981 11H7.49806V8H5.49806V11H2.49806C2.36264 11 2.24546 10.9505 2.1465 10.8516C2.04754 10.7526 1.99806 10.6354 1.99806 10.5V6.75C1.99806 6.74479 1.99806 6.73698 1.99806 6.72656C2.00327 6.71615 2.00587 6.70833 2.00587 6.70312L6.49806 3L10.9902 6.70312C10.9955 6.71354 10.9981 6.72917 10.9981 6.75ZM12.7402 6.21094L12.2559 6.78906C12.2142 6.83594 12.1595 6.86458 12.0918 6.875H12.0684C12.0007 6.875 11.946 6.85677 11.9043 6.82031L6.49806 2.3125L1.09181 6.82031C1.02931 6.86198 0.966811 6.88021 0.904311 6.875C0.836602 6.86458 0.781915 6.83594 0.740248 6.78906L0.255873 6.21094C0.214206 6.15885 0.195977 6.09896 0.201185 6.03125C0.206394 5.95833 0.23504 5.90104 0.287123 5.85938L5.90431 1.17969C6.07098 1.04427 6.26889 0.976562 6.49806 0.976562C6.72723 0.976562 6.92514 1.04427 7.09181 1.17969L8.99806 2.77344V1.25C8.99806 1.17708 9.0215 1.11719 9.06837 1.07031C9.11525 1.02344 9.17514 1 9.24806 1H10.7481C10.821 1 10.8809 1.02344 10.9277 1.07031C10.9746 1.11719 10.9981 1.17708 10.9981 1.25V4.4375L12.709 5.85938C12.7611 5.90104 12.7897 5.95833 12.7949 6.03125C12.8001 6.09896 12.7819 6.15885 12.7402 6.21094Z" fill="black"/>
</svg>
