<svg width="30" height="30" viewBox="0 0 30 30" fill="none" xmlns="http://www.w3.org/2000/svg">
<circle cx="15" cy="15" r="15" fill="#FEE040"/>
<path d="M13.7578 20.7539L9.19141 16.2148C9.0638 16.0872 9 15.9232 9 15.7227C9 15.5221 9.0638 15.3581 9.19141 15.2305L10.2031 14.2461C10.3307 14.1003 10.4857 14.0273 10.668 14.0273C10.8685 14.0273 11.0417 14.1003 11.1875 14.2461L14.25 17.3086L20.8125 10.7461C20.9583 10.6003 21.1224 10.5273 21.3047 10.5273C21.5052 10.5273 21.6693 10.6003 21.7969 10.7461L22.8086 11.7305C22.9362 11.8581 23 12.0221 23 12.2227C23 12.4232 22.9362 12.5872 22.8086 12.7148L14.7422 20.7539C14.6146 20.8997 14.4505 20.9727 14.25 20.9727C14.0495 20.9727 13.8854 20.8997 13.7578 20.7539Z" fill="#333333"/>
</svg>
