<svg width="197" height="30" viewBox="0 0 197 30" fill="none" xmlns="http://www.w3.org/2000/svg">
<g clip-path="url(#clip0)">
<path d="M66.1405 18.5171C66.2664 18.2945 66.4451 18.1063 66.6609 17.9691C66.8766 17.8319 67.1229 17.7499 67.3778 17.7304H70.4633C70.5525 17.7289 70.6411 17.7453 70.7238 17.7787C70.8065 17.8121 70.8817 17.8619 70.9447 17.9249C71.0078 17.988 71.0576 18.0631 71.091 18.1458C71.1244 18.2286 71.1408 18.3171 71.1393 18.4063V29.0988C71.1424 29.1889 71.1271 29.2788 71.0944 29.3628C71.0617 29.4469 71.0122 29.5234 70.949 29.5877C70.8857 29.652 70.8101 29.7028 70.7266 29.7369C70.6431 29.771 70.5535 29.7878 70.4633 29.7862H68.1721C68.0829 29.7877 67.9943 29.7713 67.9116 29.7379C67.8289 29.7045 67.7538 29.6547 67.6907 29.5917C67.6276 29.5286 67.5779 29.4534 67.5445 29.3707C67.5111 29.288 67.4946 29.1994 67.4962 29.1103V21.8967L63.6202 28.9881C63.4919 29.2096 63.3129 29.3975 63.0978 29.5363C62.8826 29.675 62.6376 29.7607 62.3829 29.7862H59.2974C59.2082 29.7877 59.1196 29.7713 59.0369 29.7379C58.9542 29.7045 58.879 29.6547 58.816 29.5917C58.7529 29.5286 58.7032 29.4534 58.6697 29.3707C58.6363 29.288 58.6199 29.1994 58.6214 29.1103V18.4178C58.6199 18.3286 58.6363 18.24 58.6697 18.1573C58.7032 18.0746 58.7529 17.9995 58.816 17.9364C58.879 17.8733 58.9542 17.8236 59.0369 17.7902C59.1196 17.7567 59.2082 17.7403 59.2974 17.7419H61.5886C61.6778 17.7403 61.7664 17.7567 61.8491 17.7902C61.9318 17.8236 62.0069 17.8733 62.07 17.9364C62.1331 17.9995 62.1828 18.0746 62.2162 18.1573C62.2496 18.24 62.2661 18.3286 62.2645 18.4178V25.6352L66.1405 18.5171Z" fill="#FEE040"/>
<path d="M77.6235 20.7472C77.4746 20.9373 77.2827 21.0893 77.0636 21.1909C76.8446 21.2924 76.6046 21.3406 76.3633 21.3315H74.7212C74.632 21.333 74.5435 21.3166 74.4607 21.2832C74.378 21.2498 74.3029 21.2 74.2398 21.137C74.1768 21.0739 74.127 20.9987 74.0936 20.916C74.0602 20.8333 74.0438 20.7447 74.0453 20.6556C74.0453 18.3147 76.3862 17.5051 80.0331 17.5051C83.2752 17.5051 85.8185 18.8569 85.8185 22.3014V29.1026C85.821 29.1911 85.8059 29.2793 85.7738 29.3619C85.7418 29.4444 85.6936 29.5198 85.6321 29.5835C85.5705 29.6472 85.4969 29.6979 85.4154 29.7327C85.334 29.7675 85.2464 29.7857 85.1578 29.7862H83.0423C82.9531 29.7877 82.8645 29.7713 82.7818 29.7379C82.6991 29.7044 82.6239 29.6547 82.5609 29.5916C82.4978 29.5286 82.4481 29.4534 82.4146 29.3707C82.3812 29.288 82.3648 29.1994 82.3663 29.1102V28.7742C81.2076 29.6097 79.8078 30.0441 78.3796 30.0115C75.4315 30.0115 73.1785 28.6825 73.1785 26.1393C73.1785 23.596 75.4315 22.3205 78.3796 22.3205H82.0265C82.0265 20.5639 81.2818 20.0293 79.7734 20.0293C78.8378 20.0026 78.0053 20.2737 77.6235 20.7472ZM82.015 26.5097V24.7989H78.6393C77.5815 24.7989 76.9743 25.3831 76.9743 26.1278C76.9743 26.8725 77.5815 27.5025 78.7538 27.5025C79.9126 27.4848 81.0429 27.1407 82.015 26.5097Z" fill="#FEE040"/>
<path d="M92.3256 20.3882V29.1026C92.3282 29.1924 92.3126 29.2818 92.2796 29.3654C92.2467 29.449 92.1971 29.5251 92.1339 29.589C92.0707 29.6529 91.9953 29.7033 91.912 29.7372C91.8288 29.7711 91.7396 29.7877 91.6497 29.7862H89.1943C89.1051 29.7877 89.0165 29.7713 88.9338 29.7379C88.8511 29.7044 88.7759 29.6547 88.7129 29.5916C88.6498 29.5286 88.6001 29.4534 88.5666 29.3707C88.5332 29.288 88.5168 29.1994 88.5184 29.1102V18.4178C88.5168 18.3286 88.5332 18.24 88.5666 18.1573C88.6001 18.0746 88.6498 17.9995 88.7129 17.9364C88.7759 17.8733 88.8511 17.8236 88.9338 17.7902C89.0165 17.7567 89.1051 17.7403 89.1943 17.7419H97.4122C97.5014 17.7403 97.59 17.7567 97.6727 17.7902C97.7554 17.8236 97.8305 17.8733 97.8936 17.9364C97.9567 17.9995 98.0064 18.0746 98.0398 18.1573C98.0732 18.24 98.0897 18.3286 98.0881 18.4178V19.7238C98.0897 19.813 98.0732 19.9016 98.0398 19.9843C98.0064 20.067 97.9567 20.1421 97.8936 20.2052C97.8305 20.2683 97.7554 20.318 97.6727 20.3514C97.59 20.3848 97.5014 20.4013 97.4122 20.3997L92.3256 20.3882Z" fill="#FEE040"/>
<path d="M103.488 22.3473H108.307V18.4063C108.305 18.3171 108.322 18.2286 108.355 18.1458C108.389 18.0631 108.438 17.988 108.502 17.9249C108.565 17.8619 108.64 17.8121 108.722 17.7787C108.805 17.7453 108.894 17.7289 108.983 17.7304H111.438C111.528 17.7289 111.616 17.7453 111.699 17.7787C111.782 17.8121 111.857 17.8619 111.92 17.9249C111.983 17.988 112.033 18.0631 112.066 18.1458C112.099 18.2286 112.116 18.3171 112.114 18.4063V29.0988C112.118 29.1906 112.102 29.2821 112.068 29.3675C112.034 29.4528 111.983 29.5303 111.918 29.5949C111.852 29.6595 111.774 29.7098 111.688 29.7427C111.603 29.7757 111.511 29.7905 111.419 29.7862H108.964C108.875 29.7877 108.786 29.7713 108.703 29.7379C108.621 29.7045 108.546 29.6547 108.482 29.5917C108.419 29.5286 108.37 29.4535 108.336 29.3707C108.303 29.288 108.286 29.1994 108.288 29.1103V25.0013H103.488V29.1026C103.491 29.1941 103.474 29.2852 103.44 29.3701C103.406 29.455 103.355 29.532 103.29 29.5962C103.224 29.6603 103.146 29.7103 103.061 29.743C102.976 29.7757 102.884 29.7904 102.793 29.7862H100.337C100.248 29.7867 100.16 29.7693 100.077 29.735C99.995 29.7006 99.9205 29.65 99.8581 29.5862C99.7957 29.5224 99.7469 29.4467 99.7144 29.3637C99.6819 29.2806 99.6665 29.1918 99.669 29.1026V18.4102C99.6675 18.321 99.6839 18.2324 99.7173 18.1497C99.7507 18.067 99.8005 17.9918 99.8636 17.9288C99.9266 17.8657 100.002 17.8159 100.084 17.7825C100.167 17.7491 100.256 17.7327 100.345 17.7342H102.8C102.89 17.7311 102.98 17.7463 103.064 17.7788C103.147 17.8112 103.224 17.8604 103.288 17.9232C103.352 17.986 103.403 18.0612 103.437 18.1443C103.472 18.2273 103.489 18.3165 103.488 18.4063V22.3473Z" fill="#FEE040"/>
<path d="M127.405 23.7411C127.405 27.8844 125.018 30 120.764 30C116.51 30 114.119 27.8768 114.119 23.7411C114.119 19.6054 116.506 17.5051 120.76 17.5051C125.014 17.5051 127.405 19.5978 127.405 23.7411ZM123.586 23.7411C123.586 21.068 122.662 20.0026 120.748 20.0026C118.835 20.0026 117.911 21.0833 117.911 23.7411C117.911 26.3989 118.847 27.4949 120.76 27.4949C122.673 27.4949 123.597 26.3989 123.597 23.7411H123.586Z" fill="#FEE040"/>
<path d="M132.671 23.764C132.671 26.2424 133.415 27.346 135.664 27.346C136.81 27.346 137.646 26.9183 138.028 26.3111C138.146 26.0751 138.325 25.8753 138.547 25.7328C138.769 25.5903 139.025 25.5104 139.288 25.5015H140.931C141.02 25.5 141.108 25.5164 141.191 25.5498C141.274 25.5832 141.349 25.633 141.412 25.696C141.475 25.7591 141.525 25.8343 141.558 25.917C141.592 25.9997 141.608 26.0883 141.606 26.1775C141.606 28.7436 139.266 29.9962 135.393 29.9962C131.116 29.9962 128.753 27.8806 128.753 23.7602C128.753 19.6398 131.139 17.5013 135.283 17.5013C139.155 17.5013 141.496 18.7615 141.496 21.32C141.497 21.4092 141.481 21.4978 141.447 21.5805C141.414 21.6632 141.364 21.7383 141.301 21.8014C141.238 21.8645 141.163 21.9142 141.08 21.9476C140.998 21.9811 140.909 21.9975 140.82 21.9959H139.178C138.914 21.9871 138.658 21.9072 138.436 21.7647C138.214 21.6222 138.035 21.4224 137.918 21.1864C137.536 20.5792 136.703 20.1515 135.554 20.1515C133.415 20.1629 132.671 21.2666 132.671 23.764Z" fill="#FEE040"/>
<path d="M153.788 17.7304C153.877 17.7289 153.966 17.7453 154.049 17.7787C154.131 17.8121 154.207 17.8619 154.27 17.9249C154.333 17.988 154.382 18.0631 154.416 18.1458C154.449 18.2286 154.466 18.3171 154.464 18.4063V19.7123C154.466 19.8015 154.449 19.8901 154.416 19.9728C154.382 20.0555 154.333 20.1307 154.27 20.1937C154.207 20.2568 154.131 20.3065 154.049 20.34C153.966 20.3734 153.877 20.3898 153.788 20.3883H150.275V29.1026C150.278 29.1921 150.262 29.2812 150.229 29.3646C150.197 29.4479 150.147 29.5238 150.085 29.5876C150.022 29.6515 149.947 29.702 149.864 29.7361C149.781 29.7702 149.692 29.7872 149.603 29.7862H147.147C147.058 29.7877 146.97 29.7713 146.887 29.7379C146.804 29.7045 146.729 29.6547 146.666 29.5917C146.603 29.5286 146.553 29.4534 146.52 29.3707C146.486 29.288 146.47 29.1994 146.472 29.1103V20.3883H142.958C142.869 20.3898 142.781 20.3734 142.698 20.34C142.615 20.3065 142.54 20.2568 142.477 20.1937C142.414 20.1307 142.364 20.0555 142.331 19.9728C142.297 19.8901 142.281 19.8015 142.282 19.7123V18.4063C142.281 18.3171 142.297 18.2286 142.331 18.1458C142.364 18.0631 142.414 17.988 142.477 17.9249C142.54 17.8619 142.615 17.8121 142.698 17.7787C142.781 17.7453 142.869 17.7289 142.958 17.7304H153.788Z" fill="#FEE040"/>
<path d="M163.56 18.5171C163.686 18.2945 163.865 18.1063 164.081 17.9691C164.296 17.8319 164.543 17.7499 164.798 17.7304H167.883C167.972 17.7289 168.061 17.7453 168.144 17.7787C168.226 17.8121 168.301 17.8619 168.365 17.9249C168.428 17.988 168.477 18.0631 168.511 18.1458C168.544 18.2286 168.561 18.3171 168.559 18.4063V29.0988C168.562 29.1889 168.547 29.2788 168.514 29.3628C168.482 29.4469 168.432 29.5234 168.369 29.5877C168.306 29.652 168.23 29.7028 168.146 29.7369C168.063 29.771 167.973 29.7878 167.883 29.7862H165.592C165.503 29.7877 165.414 29.7713 165.331 29.7379C165.249 29.7045 165.174 29.6547 165.111 29.5917C165.047 29.5286 164.998 29.4534 164.964 29.3707C164.931 29.288 164.914 29.1994 164.916 29.1103V21.8967L161.04 28.9881C160.911 29.2101 160.732 29.3983 160.516 29.5371C160.3 29.6759 160.054 29.7613 159.799 29.7862H156.713C156.624 29.7877 156.536 29.7713 156.453 29.7379C156.37 29.7045 156.295 29.6547 156.232 29.5917C156.169 29.5286 156.119 29.4534 156.086 29.3707C156.052 29.288 156.036 29.1994 156.037 29.1103V18.4178C156.036 18.3286 156.052 18.24 156.086 18.1573C156.119 18.0746 156.169 17.9995 156.232 17.9364C156.295 17.8733 156.37 17.8236 156.453 17.7902C156.536 17.7567 156.624 17.7403 156.713 17.7419H159.005C159.094 17.7403 159.182 17.7567 159.265 17.7902C159.348 17.8236 159.423 17.8733 159.486 17.9364C159.549 17.9995 159.599 18.0746 159.632 18.1573C159.666 18.24 159.682 18.3286 159.681 18.4178V25.6352L163.56 18.5171Z" fill="#FEE040"/>
<path d="M181.348 21.7668C181.129 22.2502 180.806 22.6788 180.401 23.0216C179.996 23.3644 179.52 23.6128 179.007 23.7487C179.931 24.0199 180.672 24.65 181.348 25.7307L183.215 28.7475C183.574 29.3317 183.418 29.7823 182.834 29.7823H180.764C180.417 29.7681 180.081 29.6656 179.785 29.4844C179.49 29.3033 179.246 29.0496 179.076 28.7475L177.678 26.4562C177.408 26.0057 177.025 25.6337 176.567 25.3771C176.109 25.1205 175.591 24.9883 175.066 24.9936V29.1026C175.069 29.1924 175.053 29.2818 175.02 29.3655C174.987 29.4491 174.938 29.5251 174.874 29.589C174.811 29.6529 174.736 29.7033 174.653 29.7372C174.569 29.7711 174.48 29.7878 174.39 29.7862H171.935C171.846 29.7877 171.757 29.7713 171.674 29.7379C171.592 29.7045 171.517 29.6547 171.453 29.5916C171.39 29.5286 171.341 29.4534 171.307 29.3707C171.274 29.288 171.257 29.1994 171.259 29.1102V18.4178C171.257 18.3286 171.274 18.24 171.307 18.1573C171.341 18.0746 171.39 17.9995 171.453 17.9364C171.517 17.8733 171.592 17.8236 171.674 17.7902C171.757 17.7567 171.846 17.7403 171.935 17.7419H174.39C174.479 17.7403 174.568 17.7567 174.651 17.7902C174.733 17.8236 174.809 17.8733 174.872 17.9364C174.935 17.9995 174.984 18.0746 175.018 18.1573C175.051 18.24 175.068 18.3286 175.066 18.4178V22.5038C176.372 22.5038 177.228 21.9654 177.678 21.0183L178.736 18.7653C178.875 18.4618 179.096 18.2036 179.375 18.0205C179.654 17.8374 179.979 17.7369 180.313 17.7304H182.383C182.967 17.7304 183.036 18.181 182.765 18.7653L181.348 21.7668Z" fill="#FEE040"/>
<path d="M188.55 20.7472C188.401 20.9373 188.209 21.0893 187.99 21.1909C187.771 21.2924 187.531 21.3406 187.29 21.3315H185.648C185.559 21.333 185.47 21.3166 185.387 21.2832C185.305 21.2498 185.23 21.2 185.167 21.137C185.103 21.0739 185.054 20.9987 185.02 20.916C184.987 20.8333 184.97 20.7447 184.972 20.6556C184.972 18.3147 187.313 17.5051 190.96 17.5051C194.202 17.5051 196.745 18.8569 196.745 22.3014V29.1026C196.748 29.1924 196.732 29.2818 196.699 29.3654C196.666 29.449 196.617 29.5251 196.553 29.589C196.49 29.6529 196.415 29.7033 196.332 29.7372C196.248 29.7711 196.159 29.7877 196.069 29.7862H193.954C193.864 29.7877 193.776 29.7713 193.693 29.7379C193.61 29.7044 193.535 29.6547 193.472 29.5916C193.409 29.5286 193.359 29.4534 193.326 29.3707C193.293 29.288 193.276 29.1994 193.278 29.1102V28.7742C192.119 29.6097 190.719 30.0441 189.291 30.0115C186.343 30.0115 184.09 28.6825 184.09 26.1393C184.09 23.596 186.343 22.3205 189.291 22.3205H192.938C192.938 20.5639 192.197 20.0293 190.685 20.0293C189.765 20.0026 188.932 20.2737 188.55 20.7472ZM192.942 26.5097V24.7989H189.562C188.504 24.7989 187.897 25.3831 187.897 26.1278C187.897 26.8725 188.504 27.5025 189.677 27.5025C190.837 27.4855 191.969 27.1413 192.942 26.5097Z" fill="#FEE040"/>
<path d="M55.8719 9.50484H48.1428C43.9842 9.50484 39.9745 10.5588 38.8595 15.126L36.194 25.9674H35.0827C34.7296 25.9644 34.3895 26.1012 34.1369 26.3481C33.8844 26.5949 33.7397 26.9317 33.7347 27.2849V28.6405C33.7387 28.9968 33.882 29.3374 34.1339 29.5893C34.3859 29.8413 34.7264 29.9846 35.0827 29.9886H55.8719C56.2251 29.9916 56.5651 29.8548 56.8177 29.6079C57.0703 29.361 57.2149 29.0242 57.2199 28.6711V10.8223C57.2149 10.4692 57.0703 10.1324 56.8177 9.88549C56.5651 9.63863 56.2251 9.50178 55.8719 9.50484ZM51.8317 25.9674H41.7006L44.1026 16.3633C44.5112 14.6372 45.7408 13.5527 47.5394 13.5527H51.8164L51.8317 25.9674Z" fill="#FEE040"/>
<path d="M61.791 0.248229H59.0873C58.989 0.246147 58.8912 0.263985 58.7999 0.30067C58.7086 0.337355 58.6257 0.392129 58.5561 0.461696C58.4866 0.531263 58.4318 0.614184 58.3951 0.705471C58.3584 0.796758 58.3406 0.894523 58.3427 0.992883V5.34624H53.0346V0.992883C53.0367 0.894523 53.0189 0.796758 52.9822 0.705471C52.9455 0.614184 52.8907 0.531263 52.8212 0.461696C52.7516 0.392129 52.6687 0.337355 52.5774 0.30067C52.4861 0.263985 52.3883 0.246147 52.29 0.248229H49.5863C49.488 0.246147 49.3902 0.263985 49.2989 0.30067C49.2076 0.337355 49.1247 0.392129 49.0551 0.461696C48.9856 0.531263 48.9308 0.614184 48.8941 0.705471C48.8574 0.796758 48.8396 0.894523 48.8417 0.992883V8.7411H53.0423V8.25994H58.3503V12.7737C58.3482 12.872 58.3661 12.9698 58.4028 13.0611C58.4394 13.1524 58.4942 13.2353 58.5638 13.3049C58.6333 13.3744 58.7163 13.4292 58.8076 13.4659C58.8988 13.5026 58.9966 13.5204 59.095 13.5183H61.7986C61.897 13.5204 61.9948 13.5026 62.086 13.4659C62.1773 13.4292 62.2603 13.3744 62.3298 13.3049C62.3994 13.2353 62.4542 13.1524 62.4908 13.0611C62.5275 12.9698 62.5454 12.872 62.5433 12.7737V0.992883C62.5454 0.893863 62.5273 0.795447 62.4902 0.703637C62.453 0.611827 62.3976 0.528545 62.3272 0.458869C62.2568 0.389194 62.173 0.334584 62.0808 0.29837C61.9886 0.262155 61.89 0.245095 61.791 0.248229Z" fill="white"/>
<path d="M73.4725 13.5183C73.3741 13.5204 73.2764 13.5026 73.1851 13.4659C73.0938 13.4292 73.0109 13.3744 72.9413 13.3049C72.8718 13.2353 72.817 13.1524 72.7803 13.0611C72.7436 12.9698 72.7258 12.8721 72.7279 12.7737V8.25995C71.7121 8.25995 70.891 8.80603 70.345 9.87145L69.0542 12.3765C68.8886 12.7272 68.6246 13.0221 68.2945 13.2255C67.9643 13.4289 67.5822 13.5319 67.1945 13.5222H64.9033C64.2579 13.5222 64.109 13.0525 64.4832 12.3765L66.2933 9.05424C66.889 7.93917 67.6069 7.16779 68.8709 6.86993C68.2982 6.73778 67.7654 6.47057 67.317 6.09059C66.8686 5.7106 66.5176 5.22887 66.2933 4.68561L64.9796 1.38622C64.7085 0.71794 64.7582 0.240598 65.3997 0.240598H67.6909C68.0632 0.229589 68.4299 0.333697 68.7408 0.53872C69.0518 0.743743 69.2919 1.0397 69.4285 1.38622L70.345 3.8684C70.5109 4.36286 70.833 4.79 71.2628 5.08548C71.6926 5.38096 72.2068 5.52877 72.7279 5.50664V0.99289C72.7258 0.894529 72.7436 0.796764 72.7803 0.705478C72.817 0.614191 72.8718 0.531269 72.9413 0.461702C73.0109 0.392136 73.0938 0.337362 73.1851 0.300677C73.2764 0.263991 73.3741 0.246153 73.4725 0.248236H76.1762C76.2745 0.246153 76.3723 0.263991 76.4636 0.300677C76.5549 0.337362 76.6378 0.392136 76.7074 0.461702C76.7769 0.531269 76.8317 0.614191 76.8684 0.705478C76.9051 0.796764 76.9229 0.894529 76.9208 0.99289V5.50664C77.4419 5.52877 77.9561 5.38096 78.3859 5.08548C78.8157 4.79 79.1378 4.36286 79.3037 3.8684L80.2202 1.38622C80.3568 1.0397 80.5969 0.743743 80.9079 0.53872C81.2188 0.333697 81.5854 0.229589 81.9577 0.240598H84.249C84.8943 0.240598 84.944 0.710303 84.669 1.38622L83.3554 4.68561C83.1305 5.23093 82.7779 5.71429 82.3274 6.09506C81.8768 6.47583 81.3415 6.74287 80.7663 6.87374C82.0303 7.17161 82.752 7.93917 83.3478 9.05806L85.1578 12.3804C85.5397 13.0486 85.3831 13.526 84.7378 13.526H82.4465C82.0589 13.5358 81.6767 13.4327 81.3466 13.2293C81.0164 13.0259 80.7525 12.731 80.5868 12.3804L79.2961 9.87527C78.75 8.80984 77.9328 8.26377 76.9132 8.26377V12.7737C76.9153 12.8721 76.8974 12.9698 76.8607 13.0611C76.8241 13.1524 76.7693 13.2353 76.6997 13.3049C76.6302 13.3744 76.5472 13.4292 76.4559 13.4659C76.3647 13.5026 76.2669 13.5204 76.1685 13.5183H73.4725Z" fill="white"/>
<path d="M90.3895 8.16064C90.5614 10.1464 91.455 11.0132 93.4903 11.0132C94.5329 11.0132 95.4493 10.7154 95.8732 10.196C96.0374 9.98693 96.2483 9.81927 96.4891 9.70652C96.7298 9.59377 96.9937 9.53908 97.2594 9.54684H99.0695C99.1695 9.54463 99.2689 9.56303 99.3615 9.60088C99.4542 9.63873 99.538 9.69523 99.6078 9.76686C99.6777 9.8385 99.732 9.92373 99.7675 10.0173C99.803 10.1108 99.8189 10.2107 99.8142 10.3106C99.8142 12.8921 97.141 13.7818 93.1925 13.7818C88.778 13.7818 86.124 11.3989 86.124 6.9081C86.124 2.41726 88.8009 0 93.1772 0C97.5535 0 100.246 2.35616 100.246 6.72098V7.41599C100.248 7.51435 100.23 7.61211 100.193 7.7034C100.157 7.79469 100.102 7.87761 100.032 7.94717C99.9626 8.01674 99.8797 8.07152 99.7884 8.1082C99.6971 8.14489 99.5994 8.16272 99.501 8.16064H90.3895ZM90.3666 5.60591H95.9992C95.9229 3.74618 95.0331 2.75331 93.1963 2.75331C91.3595 2.75331 90.4621 3.74618 90.3628 5.60591H90.3666Z" fill="white"/>
<path d="M106.684 5.34625H111.992V0.992895C111.99 0.894534 112.008 0.796769 112.045 0.705483C112.081 0.614196 112.136 0.531274 112.206 0.461708C112.275 0.392141 112.358 0.337367 112.449 0.300682C112.541 0.263996 112.638 0.246158 112.737 0.248241H115.44C115.539 0.246158 115.637 0.263996 115.728 0.300682C115.819 0.337367 115.902 0.392141 115.972 0.461708C116.041 0.531274 116.096 0.614196 116.133 0.705483C116.169 0.796769 116.187 0.894534 116.185 0.992895V12.7737C116.187 12.8721 116.169 12.9698 116.133 13.0611C116.096 13.1524 116.041 13.2353 115.972 13.3049C115.902 13.3745 115.819 13.4292 115.728 13.4659C115.637 13.5026 115.539 13.5204 115.44 13.5184H112.737C112.638 13.5204 112.541 13.5026 112.449 13.4659C112.358 13.4292 112.275 13.3745 112.206 13.3049C112.136 13.2353 112.081 13.1524 112.045 13.0611C112.008 12.9698 111.99 12.8721 111.992 12.7737V8.25995H106.684V12.7737C106.686 12.8721 106.668 12.9698 106.632 13.0611C106.595 13.1524 106.54 13.2353 106.471 13.3049C106.401 13.3745 106.318 13.4292 106.227 13.4659C106.136 13.5026 106.038 13.5204 105.939 13.5184H103.236C103.137 13.5204 103.04 13.5026 102.948 13.4659C102.857 13.4292 102.774 13.3745 102.705 13.3049C102.635 13.2353 102.58 13.1524 102.544 13.0611C102.507 12.9698 102.489 12.8721 102.491 12.7737V0.992895C102.489 0.894534 102.507 0.796769 102.544 0.705483C102.58 0.614196 102.635 0.531274 102.705 0.461708C102.774 0.392141 102.857 0.337367 102.948 0.300682C103.04 0.263996 103.137 0.246158 103.236 0.248241H105.939C106.038 0.246158 106.136 0.263996 106.227 0.300682C106.318 0.337367 106.401 0.392141 106.471 0.461708C106.54 0.531274 106.595 0.614196 106.632 0.705483C106.668 0.796769 106.686 0.894534 106.684 0.992895V5.34625Z" fill="white"/>
<path d="M122.681 8.16064C122.853 10.1464 123.746 11.0132 125.782 11.0132C126.824 11.0132 127.741 10.7154 128.164 10.196C128.329 9.9864 128.541 9.81842 128.782 9.70565C129.024 9.59288 129.288 9.53848 129.554 9.54684H131.365C131.465 9.54463 131.564 9.56303 131.657 9.60088C131.749 9.63873 131.833 9.69523 131.903 9.76686C131.973 9.8385 132.027 9.92373 132.063 10.0173C132.098 10.1108 132.114 10.2107 132.109 10.3106C132.109 12.8921 129.436 13.7818 125.488 13.7818C121.073 13.7818 118.419 11.3989 118.419 6.9081C118.419 2.41726 121.096 0 125.484 0C129.871 0 132.552 2.35616 132.552 6.72098V7.41599C132.554 7.51435 132.536 7.61211 132.5 7.7034C132.463 7.79469 132.408 7.87761 132.339 7.94717C132.269 8.01674 132.186 8.07152 132.095 8.1082C132.004 8.14489 131.906 8.16272 131.808 8.16064H122.681ZM122.654 5.60591H128.287C128.21 3.74618 127.321 2.75331 125.484 2.75331C123.647 2.75331 122.757 3.74618 122.658 5.60591H122.654Z" fill="white"/>
<path d="M142.848 1.53081e-05C141.329 -0.00942994 139.847 0.468397 138.62 1.3633V0.981431C138.621 0.882365 138.601 0.784209 138.563 0.69295C138.524 0.601692 138.467 0.519244 138.396 0.450637C138.324 0.382029 138.24 0.328699 138.147 0.2939C138.054 0.259101 137.955 0.243563 137.856 0.248233H135.523C135.427 0.249222 135.331 0.269326 135.243 0.307383C135.154 0.34544 135.074 0.400693 135.007 0.469946C134.94 0.539198 134.887 0.621075 134.852 0.710837C134.817 0.800599 134.799 0.896465 134.801 0.992887V16.7605C134.966 16.7605 135.126 16.7605 135.298 16.7605C136.519 16.7344 137.736 16.8914 138.91 17.2263C138.963 17.1208 138.99 17.0044 138.991 16.8865V13.1479C140.113 13.5511 141.296 13.7603 142.489 13.7666C146.357 13.7666 148.98 11.4333 148.98 6.86992C148.98 2.30653 146.368 1.53081e-05 142.848 1.53081e-05ZM141.606 10.8414C140.712 10.7981 139.828 10.631 138.979 10.345V4.01733C139.846 3.47125 140.965 2.92517 141.855 2.92517C143.84 2.92517 144.658 4.13953 144.658 6.86992C144.658 9.60032 143.84 10.8414 141.606 10.8414Z" fill="white"/>
<path d="M155.4 5.34625H160.708V0.992895C160.706 0.894862 160.723 0.797419 160.76 0.706391C160.796 0.615363 160.851 0.532619 160.92 0.463106C160.989 0.393593 161.072 0.338738 161.162 0.30182C161.253 0.264902 161.351 0.246679 161.449 0.248241H164.152C164.251 0.246158 164.348 0.263996 164.44 0.300682C164.531 0.337367 164.614 0.392141 164.683 0.461708C164.753 0.531274 164.808 0.614196 164.844 0.705483C164.881 0.796769 164.899 0.894534 164.897 0.992895V12.7737C164.899 12.8721 164.881 12.9698 164.844 13.0611C164.808 13.1524 164.753 13.2353 164.683 13.3049C164.614 13.3745 164.531 13.4292 164.44 13.4659C164.348 13.5026 164.251 13.5204 164.152 13.5184H161.449C161.35 13.5204 161.252 13.5026 161.161 13.4659C161.07 13.4292 160.987 13.3745 160.917 13.3049C160.848 13.2353 160.793 13.1524 160.756 13.0611C160.72 12.9698 160.702 12.8721 160.704 12.7737V8.25995H155.396V12.7737C155.398 12.8714 155.38 12.9685 155.344 13.0593C155.308 13.1501 155.254 13.2326 155.185 13.3021C155.116 13.3716 155.034 13.4265 154.944 13.4636C154.854 13.5008 154.757 13.5194 154.659 13.5184H151.955C151.858 13.5189 151.761 13.4999 151.671 13.4625C151.581 13.4251 151.5 13.3701 151.431 13.3007C151.363 13.2313 151.309 13.1489 151.273 13.0584C151.237 12.9679 151.22 12.8711 151.222 12.7737V0.992895C151.22 0.895833 151.237 0.799343 151.273 0.70908C151.309 0.618817 151.362 0.536598 151.43 0.467243C151.498 0.397888 151.579 0.342792 151.669 0.305186C151.758 0.267579 151.854 0.24822 151.951 0.248241H154.659C154.757 0.246158 154.855 0.263996 154.946 0.300682C155.038 0.337367 155.12 0.392141 155.19 0.461708C155.26 0.531274 155.314 0.614196 155.351 0.705483C155.388 0.796769 155.406 0.894534 155.404 0.992895L155.4 5.34625Z" fill="white"/>
<path d="M172.042 3.57054C171.875 3.77667 171.663 3.941 171.421 4.0504C171.18 4.15981 170.917 4.21125 170.652 4.20063H168.842C168.743 4.20271 168.646 4.18487 168.554 4.14819C168.463 4.1115 168.38 4.05673 168.31 3.98716C168.241 3.91759 168.186 3.83467 168.149 3.74339C168.113 3.6521 168.095 3.55433 168.097 3.45597C168.097 0.874507 170.675 -0.0152588 174.696 -0.0152588C178.266 -0.0152588 181.069 1.47405 181.069 5.26987V12.7737C181.071 12.8721 181.054 12.9698 181.017 13.0611C180.98 13.1524 180.925 13.2353 180.856 13.3049C180.786 13.3744 180.703 13.4292 180.612 13.4659C180.521 13.5026 180.423 13.5204 180.325 13.5183H177.991C177.893 13.5204 177.795 13.5026 177.704 13.4659C177.613 13.4292 177.53 13.3744 177.46 13.3049C177.391 13.2353 177.336 13.1524 177.299 13.0611C177.262 12.9698 177.245 12.8721 177.247 12.7737V12.3918C175.97 13.3121 174.428 13.7908 172.855 13.7551C169.605 13.7551 167.127 12.2925 167.127 9.48958C167.127 6.68663 169.609 5.28897 172.855 5.28897H176.872C176.872 3.35287 176.055 2.75714 174.39 2.75714C173.371 2.75333 172.462 3.05501 172.042 3.57054ZM176.88 9.92873V8.01936H173.161C171.996 8.01936 171.324 8.66473 171.324 9.48194C171.324 10.2992 171.992 11.0094 173.283 11.0094C174.56 10.9946 175.807 10.6201 176.88 9.92873Z" fill="white"/>
<path d="M190.173 8.78313L188.115 12.4529C187.931 12.7889 187.657 13.0668 187.324 13.2551C186.99 13.4434 186.611 13.5346 186.228 13.5184H184.063C183.467 13.5184 183.269 13.0219 183.616 12.4529L186.03 8.40125C184.392 7.78262 183.448 6.69046 183.448 4.53287C183.448 1.33277 185.656 0.267345 188.856 0.267345H196.001C196.099 0.265262 196.197 0.2831 196.288 0.319786C196.379 0.356471 196.462 0.411245 196.532 0.480812C196.601 0.550378 196.656 0.6333 196.693 0.724587C196.729 0.815873 196.747 0.913638 196.745 1.012V12.7737C196.747 12.8721 196.729 12.9698 196.693 13.0611C196.656 13.1524 196.601 13.2353 196.532 13.3049C196.462 13.3745 196.379 13.4292 196.288 13.4659C196.197 13.5026 196.099 13.5204 196.001 13.5184H193.297C193.198 13.5204 193.101 13.5026 193.009 13.4659C192.918 13.4292 192.835 13.3745 192.766 13.3049C192.696 13.2353 192.641 13.1524 192.605 13.0611C192.568 12.9698 192.55 12.8721 192.552 12.7737V8.78313H190.173ZM192.556 6.02982V3.00156H189.234C188.241 3.00156 187.645 3.59728 187.645 4.52906C187.645 5.46083 188.241 6.05655 189.234 6.05655L192.556 6.02982Z" fill="white"/>
<path d="M44.8434 16.5313L42.6782 25.2037H47.3523V14.3241C46.0578 14.3966 45.168 15.168 44.8434 16.5313Z" fill="white"/>
<path d="M47.3523 1.47785C47.25 1.06025 47.0117 0.688497 46.6751 0.420996C46.3385 0.153495 45.9225 0.00540761 45.4926 0L39.249 0C38.2217 0 36.9768 0.943228 36.3773 1.97047L24.5392 22.7597V1.92846C24.5338 1.47152 24.3679 1.03104 24.0705 0.684078C23.7731 0.337119 23.3632 0.105784 22.9124 0.0305499L22.5649 0H8.78309C8.58343 0.0139025 8.39648 0.103024 8.25996 0.249379C8.12344 0.395734 8.04752 0.588426 8.04752 0.788569C8.04752 0.988712 8.12344 1.1814 8.25996 1.32776C8.39648 1.47411 8.58343 1.56324 8.78309 1.57714H17.1843C17.2925 1.56961 17.401 1.58441 17.5033 1.62063C17.6055 1.65685 17.6991 1.7137 17.7784 1.78767C17.8577 1.86163 17.9209 1.95112 17.9642 2.05056C18.0074 2.15 18.0297 2.25728 18.0297 2.36571C18.0297 2.47414 18.0074 2.58141 17.9642 2.68086C17.9209 2.7803 17.8577 2.86979 17.7784 2.94375C17.6991 3.01771 17.6055 3.07457 17.5033 3.11079C17.401 3.14701 17.2925 3.16181 17.1843 3.15428H13.1479C12.9482 3.16818 12.7613 3.2573 12.6248 3.40366C12.4883 3.55001 12.4123 3.7427 12.4123 3.94285C12.4123 4.14299 12.4883 4.33568 12.6248 4.48204C12.7613 4.62839 12.9482 4.71751 13.1479 4.73142H21.0451C21.2447 4.74532 21.4317 4.83444 21.5682 4.98079C21.7047 5.12715 21.7806 5.31984 21.7806 5.51999C21.7806 5.72013 21.7047 5.91282 21.5682 6.05918C21.4317 6.20553 21.2447 6.29465 21.0451 6.30855H7.99643C7.79677 6.32246 7.60982 6.41158 7.4733 6.55793C7.33678 6.70429 7.26086 6.89698 7.26086 7.09712C7.26086 7.29727 7.33678 7.48996 7.4733 7.63631C7.60982 7.78267 7.79677 7.87179 7.99643 7.88569H16.2143C16.3225 7.87816 16.4311 7.89296 16.5333 7.92918C16.6355 7.9654 16.7292 8.02226 16.8085 8.09622C16.8877 8.17019 16.951 8.25967 16.9942 8.35911C17.0374 8.45856 17.0597 8.56583 17.0597 8.67426C17.0597 8.7827 17.0374 8.88997 16.9942 8.98941C16.951 9.08885 16.8877 9.17834 16.8085 9.2523C16.7292 9.32627 16.6355 9.38312 16.5333 9.41934C16.4311 9.45556 16.3225 9.47036 16.2143 9.46283H6.34292C6.23474 9.4553 6.12618 9.4701 6.02397 9.50632C5.92177 9.54254 5.82811 9.5994 5.74882 9.67336C5.66952 9.74732 5.6063 9.83681 5.56307 9.93625C5.51984 10.0357 5.49753 10.143 5.49753 10.2514C5.49753 10.3598 5.51984 10.4671 5.56307 10.5666C5.6063 10.666 5.66952 10.7555 5.74882 10.8294C5.82811 10.9034 5.92177 10.9603 6.02397 10.9965C6.12618 11.0327 6.23474 11.0475 6.34292 11.04H19.1548C19.3544 11.0539 19.5414 11.143 19.6779 11.2893C19.8144 11.4357 19.8903 11.6284 19.8903 11.8285C19.8903 12.0287 19.8144 12.2214 19.6779 12.3677C19.5414 12.5141 19.3544 12.6032 19.1548 12.6171H2.02774C1.82808 12.631 1.64113 12.7201 1.50461 12.8665C1.36809 13.0128 1.29217 13.2055 1.29217 13.4057C1.29217 13.6058 1.36809 13.7985 1.50461 13.9449C1.64113 14.0912 1.82808 14.1803 2.02774 14.1942H16.9781C17.1877 14.1942 17.3888 14.2775 17.5371 14.4258C17.6853 14.574 17.7686 14.7751 17.7686 14.9847C17.7686 15.1944 17.6853 15.3954 17.5371 15.5437C17.3888 15.6919 17.1877 15.7752 16.9781 15.7752H3.9562C3.84803 15.7677 3.73947 15.7825 3.63726 15.8187C3.53506 15.8549 3.4414 15.9118 3.3621 15.9857C3.28281 16.0597 3.21959 16.1492 3.17636 16.2486C3.13313 16.3481 3.11082 16.4553 3.11082 16.5638C3.11082 16.6722 3.13313 16.7795 3.17636 16.8789C3.21959 16.9784 3.28281 17.0679 3.3621 17.1418C3.4414 17.2158 3.53506 17.2726 3.63726 17.3089C3.73947 17.3451 3.84803 17.3599 3.9562 17.3523H14.7709C14.879 17.3448 14.9876 17.3596 15.0898 17.3958C15.192 17.4321 15.2857 17.4889 15.365 17.5629C15.4443 17.6368 15.5075 17.7263 15.5507 17.8258C15.5939 17.9252 15.6163 18.0325 15.6163 18.1409C15.6163 18.2493 15.5939 18.3566 15.5507 18.4561C15.5075 18.5555 15.4443 18.645 15.365 18.719C15.2857 18.7929 15.192 18.8498 15.0898 18.886C14.9876 18.9222 14.879 18.937 14.7709 18.9295H0.790471C0.590811 18.9434 0.403858 19.0325 0.26734 19.1789C0.130821 19.3252 0.0549011 19.5179 0.0549011 19.7181C0.0549011 19.9182 0.130821 20.1109 0.26734 20.2572C0.403858 20.4036 0.590811 20.4927 0.790471 20.5066H19.8574C19.9656 20.4991 20.0742 20.5139 20.1764 20.5501C20.2786 20.5863 20.3722 20.6432 20.4515 20.7171C20.5308 20.7911 20.594 20.8806 20.6373 20.98C20.6805 21.0795 20.7028 21.1868 20.7028 21.2952C20.7028 21.4036 20.6805 21.5109 20.6373 21.6103C20.594 21.7098 20.5308 21.7993 20.4515 21.8732C20.3722 21.9472 20.2786 22.0041 20.1764 22.0403C20.0742 22.0765 19.9656 22.0913 19.8574 22.0838H7.59928C7.39962 22.0977 7.21267 22.1868 7.07615 22.3331C6.93963 22.4795 6.86371 22.6722 6.86371 22.8723C6.86371 23.0725 6.93963 23.2652 7.07615 23.4115C7.21267 23.5579 7.39962 23.647 7.59928 23.6609H17.9481C18.0562 23.6534 18.1648 23.6682 18.267 23.7044C18.3692 23.7406 18.4629 23.7975 18.5422 23.8714C18.6214 23.9454 18.6847 24.0349 18.7279 24.1343C18.7711 24.2338 18.7934 24.341 18.7934 24.4495C18.7934 24.5579 18.7711 24.6652 18.7279 24.7646C18.6847 24.8641 18.6214 24.9535 18.5422 25.0275C18.4629 25.1015 18.3692 25.1583 18.267 25.1945C18.1648 25.2308 18.0562 25.2456 17.9481 25.238H5.09037C4.89071 25.2519 4.70376 25.3411 4.56724 25.4874C4.43072 25.6338 4.3548 25.8265 4.3548 26.0266C4.3548 26.2267 4.43072 26.4194 4.56724 26.5658C4.70376 26.7122 4.89071 26.8013 5.09037 26.8152H14.874C14.9821 26.8076 15.0907 26.8224 15.1929 26.8587C15.2951 26.8949 15.3888 26.9517 15.4681 27.0257C15.5474 27.0997 15.6106 27.1892 15.6538 27.2886C15.6971 27.388 15.7194 27.4953 15.7194 27.6037C15.7194 27.7122 15.6971 27.8195 15.6538 27.9189C15.6106 28.0183 15.5474 28.1078 15.4681 28.1818C15.3888 28.2557 15.2951 28.3126 15.1929 28.3488C15.0907 28.385 14.9821 28.3998 14.874 28.3923H4.41063C4.30246 28.3848 4.1939 28.3996 4.09169 28.4358C3.98949 28.472 3.89583 28.5289 3.81653 28.6028C3.73724 28.6768 3.67402 28.7663 3.63079 28.8657C3.58756 28.9652 3.56525 29.0725 3.56525 29.1809C3.56525 29.2893 3.58756 29.3966 3.63079 29.496C3.67402 29.5955 3.73724 29.685 3.81653 29.7589C3.89583 29.8329 3.98949 29.8897 4.09169 29.926C4.1939 29.9622 4.30246 29.977 4.41063 29.9695H25.8223C26.9374 29.9695 28.2663 29.0682 28.8773 27.999L39.8065 8.58452V11.5822C40.5531 10.7477 41.4805 10.0946 42.5178 9.67286C44.0608 9.0787 45.6989 8.76946 47.3523 8.76018V1.97047C47.3516 1.82125 47.3337 1.67261 47.2989 1.5275L47.3523 1.47785ZM18.918 9.46665C18.7617 9.46665 18.6088 9.42029 18.4788 9.33343C18.3489 9.24657 18.2475 9.12312 18.1877 8.97867C18.1279 8.83423 18.1122 8.67529 18.1427 8.52196C18.1732 8.36862 18.2485 8.22777 18.3591 8.11722C18.4696 8.00667 18.6105 7.93138 18.7638 7.90088C18.9171 7.87038 19.0761 7.88604 19.2205 7.94586C19.365 8.00569 19.4884 8.10701 19.5753 8.23701C19.6621 8.367 19.7085 8.51983 19.7085 8.67617C19.7085 8.88582 19.6252 9.08688 19.477 9.23512C19.3287 9.38337 19.1277 9.46665 18.918 9.46665ZM19.1357 18.9524C18.9793 18.9524 18.8265 18.906 18.6965 18.8192C18.5665 18.7323 18.4652 18.6089 18.4054 18.4644C18.3455 18.32 18.3299 18.161 18.3604 18.0077C18.3909 17.8544 18.4662 17.7135 18.5767 17.603C18.6873 17.4924 18.8281 17.4171 18.9815 17.3866C19.1348 17.3561 19.2937 17.3718 19.4382 17.4316C19.5826 17.4914 19.7061 17.5928 19.7929 17.7227C19.8798 17.8527 19.9262 18.0056 19.9262 18.1619C19.9262 18.3716 19.8429 18.5726 19.6946 18.7209C19.5464 18.8691 19.3453 18.9524 19.1357 18.9524ZM17.5662 28.419C17.4088 28.4244 17.2534 28.3826 17.12 28.299C16.9865 28.2155 16.881 28.0939 16.8171 27.9501C16.7532 27.8062 16.7336 27.6465 16.761 27.4914C16.7885 27.3363 16.8616 27.193 16.971 27.0798C17.0804 26.9665 17.2211 26.8885 17.3751 26.8558C17.5292 26.8231 17.6894 26.8371 17.8355 26.8961C17.9815 26.955 18.1065 27.0562 18.1946 27.1868C18.2827 27.3173 18.3298 27.4711 18.3299 27.6286C18.33 27.8337 18.2504 28.0308 18.1079 28.1783C17.9654 28.3258 17.7712 28.4121 17.5662 28.419Z" fill="white"/>
<path d="M6.09852 1.58096C6.53509 1.58096 6.889 1.22705 6.889 0.790479C6.889 0.353909 6.53509 0 6.09852 0C5.66195 0 5.30804 0.353909 5.30804 0.790479C5.30804 1.22705 5.66195 1.58096 6.09852 1.58096Z" fill="white"/>
<path d="M10.4557 4.73522C10.8923 4.73522 11.2462 4.38131 11.2462 3.94475C11.2462 3.50818 10.8923 3.15427 10.4557 3.15427C10.0191 3.15427 9.66522 3.50818 9.66522 3.94475C9.66522 4.38131 10.0191 4.73522 10.4557 4.73522Z" fill="white"/>
<path d="M2.4058 26.8572C2.84237 26.8572 3.19628 26.5033 3.19628 26.0667C3.19628 25.6301 2.84237 25.2762 2.4058 25.2762C1.96924 25.2762 1.61533 25.6301 1.61533 26.0667C1.61533 26.5033 1.96924 26.8572 2.4058 26.8572Z" fill="white"/>
<path d="M1.26399 17.3676C1.70056 17.3676 2.05447 17.0137 2.05447 16.5771C2.05447 16.1406 1.70056 15.7867 1.26399 15.7867C0.82742 15.7867 0.473511 16.1406 0.473511 16.5771C0.473511 17.0137 0.82742 17.3676 1.26399 17.3676Z" fill="white"/>
</g>
<defs>
<clipPath id="clip0">
<rect width="196.745" height="30" fill="white"/>
</clipPath>
</defs>
</svg>
