<svg width="11" height="8" viewBox="0 0 11 8" fill="none" xmlns="http://www.w3.org/2000/svg">
<path d="M10.3047 2.98047C10.3438 2.94141 10.3828 2.9349 10.4219 2.96094C10.474 2.98698 10.5 3.02604 10.5 3.07812V7.0625C10.5 7.32292 10.4089 7.54427 10.2266 7.72656C10.0443 7.90885 9.82292 8 9.5625 8H1.4375C1.17708 8 0.955729 7.90885 0.773438 7.72656C0.591146 7.54427 0.5 7.32292 0.5 7.0625V3.07812C0.5 3.02604 0.519531 2.99349 0.558594 2.98047C0.610677 2.95443 0.65625 2.95443 0.695312 2.98047C1.125 3.30599 2.1276 4.04167 3.70312 5.1875C3.72917 5.21354 3.8138 5.28516 3.95703 5.40234C4.11328 5.51953 4.23698 5.61068 4.32812 5.67578C4.41927 5.72786 4.53646 5.79948 4.67969 5.89062C4.82292 5.96875 4.95964 6.02734 5.08984 6.06641C5.23307 6.10547 5.36979 6.125 5.5 6.125C5.61719 6.125 5.73438 6.11198 5.85156 6.08594C5.96875 6.04688 6.07943 6.00781 6.18359 5.96875C6.28776 5.91667 6.39844 5.85156 6.51562 5.77344C6.63281 5.69531 6.73047 5.63021 6.80859 5.57812C6.88672 5.51302 6.97786 5.44141 7.08203 5.36328C7.1862 5.28516 7.25781 5.22656 7.29688 5.1875C8.83333 4.08073 9.83594 3.34505 10.3047 2.98047ZM5.5 5.5C5.39583 5.5 5.26562 5.46745 5.10938 5.40234C4.96615 5.32422 4.84896 5.25911 4.75781 5.20703C4.66667 5.14193 4.52995 5.04427 4.34766 4.91406C4.17839 4.77083 4.08724 4.69922 4.07422 4.69922C2.48568 3.54036 1.35286 2.70052 0.675781 2.17969C0.558594 2.08854 0.5 1.96484 0.5 1.80859V1.4375C0.5 1.17708 0.591146 0.955729 0.773438 0.773438C0.955729 0.591146 1.17708 0.5 1.4375 0.5H9.5625C9.82292 0.5 10.0443 0.591146 10.2266 0.773438C10.4089 0.955729 10.5 1.17708 10.5 1.4375V1.80859C10.5 1.96484 10.4414 2.08854 10.3242 2.17969C9.6862 2.67448 8.55339 3.51432 6.92578 4.69922C6.91276 4.69922 6.8151 4.77083 6.63281 4.91406C6.46354 5.04427 6.33333 5.14193 6.24219 5.20703C6.15104 5.25911 6.02734 5.32422 5.87109 5.40234C5.72786 5.46745 5.60417 5.5 5.5 5.5Z" fill="#FEE040"/>
</svg>
