<svg width="12" height="11" viewBox="0 0 12 11" fill="none" xmlns="http://www.w3.org/2000/svg">
<path d="M11.9941 8.6875C11.9941 8.63281 11.9941 8.57813 11.9707 8.52344C11.916 8.35938 11.5332 8.1875 11.377 8.10938C10.9316 7.85938 10.4785 7.61719 10.041 7.35938C9.83789 7.23438 9.58789 7 9.3457 7C8.86914 7 8.17383 8.41406 7.75195 8.41406C7.54102 8.41406 7.26758 8.21875 7.08008 8.10938C5.6582 7.32031 4.67383 6.33594 3.88477 4.91406C3.77539 4.72656 3.58008 4.45312 3.58008 4.24219C3.58008 3.82031 4.99414 3.125 4.99414 2.64844C4.99414 2.40625 4.75977 2.15625 4.63477 1.95313C4.37695 1.51563 4.13477 1.0625 3.88477 0.617188C3.80664 0.460938 3.63477 0.0781251 3.4707 0.0234376C3.41602 0 3.36133 0 3.30664 0C3.02539 0 2.47852 0.125 2.2207 0.242188C1.83789 0.40625 1.58789 0.84375 1.39258 1.19531C1.14258 1.65625 0.994141 2.125 0.994141 2.64844C0.994141 3.375 1.29102 4.03125 1.5332 4.69531C1.70508 5.17188 1.91602 5.63281 2.18164 6.0625C3.00195 7.39063 4.60352 8.99219 5.93164 9.8125C6.36133 10.0781 6.82227 10.2891 7.29883 10.4609C7.96289 10.7031 8.61914 11 9.3457 11C9.86914 11 10.3379 10.8516 10.7988 10.6016C11.1504 10.4063 11.5879 10.1563 11.752 9.77344C11.8691 9.51563 11.9941 8.96875 11.9941 8.6875Z" fill="white"/>
</svg>
