<svg width="14" height="9" viewBox="0 0 14 9" fill="none" xmlns="http://www.w3.org/2000/svg">
<path d="M13.3359 3.9375C12.6641 2.79688 11.75 1.89062 10.5938 1.21875C9.42188 0.53125 8.14062 0.1875 6.75 0.1875C5.35938 0.1875 4.07812 0.53125 2.90625 1.21875C1.75 1.89062 0.835938 2.79688 0.164062 3.9375C0.0546875 4.10938 0 4.29688 0 4.5C0 4.70312 0.0546875 4.89062 0.164062 5.0625C0.835938 6.20312 1.75 7.10938 2.90625 7.78125C4.07812 8.46875 5.35938 8.8125 6.75 8.8125C8.14062 8.8125 9.42188 8.46875 10.5938 7.78125C11.75 7.10938 12.6641 6.20312 13.3359 5.0625C13.4453 4.89062 13.5 4.70312 13.5 4.5C13.5 4.29688 13.4453 4.10938 13.3359 3.9375ZM6.75 7.6875C6.17188 7.6875 5.64062 7.54688 5.15625 7.26562C4.67188 6.96875 4.28125 6.57812 3.98438 6.09375C3.70312 5.60938 3.5625 5.07812 3.5625 4.5C3.5625 3.92188 3.70312 3.39062 3.98438 2.90625C4.28125 2.42188 4.67188 2.03906 5.15625 1.75781C5.64062 1.46094 6.17188 1.3125 6.75 1.3125C7.32812 1.3125 7.85938 1.46094 8.34375 1.75781C8.82812 2.03906 9.21094 2.42188 9.49219 2.90625C9.78906 3.39062 9.9375 3.92188 9.9375 4.5C9.9375 5.07812 9.78906 5.60938 9.49219 6.09375C9.21094 6.57812 8.82812 6.96875 8.34375 7.26562C7.85938 7.54688 7.32812 7.6875 6.75 7.6875ZM9.1875 4.5C9.1875 5.17188 8.94531 5.75 8.46094 6.23438C7.99219 6.70312 7.42188 6.9375 6.75 6.9375C6.07812 6.9375 5.5 6.70312 5.01562 6.23438C4.54688 5.75 4.3125 5.17188 4.3125 4.5C4.3125 4.09375 4.40625 3.71094 4.59375 3.35156C4.59375 3.63281 4.6875 3.875 4.875 4.07812C5.07812 4.26562 5.32031 4.35938 5.60156 4.35938C5.88281 4.35938 6.11719 4.26562 6.30469 4.07812C6.50781 3.875 6.60938 3.63281 6.60938 3.35156C6.60938 3.07031 6.50781 2.83594 6.30469 2.64844C6.11719 2.44531 5.88281 2.34375 5.60156 2.34375C5.96094 2.15625 6.34375 2.0625 6.75 2.0625C7.42188 2.0625 7.99219 2.30469 8.46094 2.78906C8.94531 3.25781 9.1875 3.82812 9.1875 4.5Z" fill="black"/>
</svg>
