<svg width="54" height="48" viewBox="0 0 54 48" fill="none" xmlns="http://www.w3.org/2000/svg">
<path fill-rule="evenodd" clip-rule="evenodd" d="M11.8708 10.8011C11.7411 10.9455 11.46 11.4084 11.46 12.66V35.34C11.46 36.5916 11.7411 37.0545 11.8708 37.1989C11.9615 37.3 12.1844 37.48 12.88 37.48C13.5756 37.48 13.7985 37.3 13.8892 37.1989C14.0189 37.0545 14.3 36.5916 14.3 35.34V12.66C14.3 11.4084 14.0189 10.9455 13.8892 10.8011C13.7985 10.7 13.5756 10.52 12.88 10.52C12.1844 10.52 11.9615 10.7 11.8708 10.8011ZM3.98394 44.0911C1.83518 41.8092 0.859985 38.6137 0.859985 34.92V13.08C0.859985 9.38627 1.83518 6.19077 3.98394 3.9089C6.15024 1.6084 9.24155 0.520004 12.88 0.520004C16.5184 0.520004 19.6097 1.6084 21.776 3.9089C23.9248 6.19077 24.9 9.38627 24.9 13.08V34.92C24.9 38.6137 23.9248 41.8092 21.776 44.0911C19.6097 46.3916 16.5184 47.48 12.88 47.48C9.24155 47.48 6.15024 46.3916 3.98394 44.0911ZM36.369 18.1H40.949C41.9304 18.1 42.2847 17.88 42.4296 17.7335C42.5835 17.5779 42.909 17.092 42.909 15.66V13.32C42.909 11.5782 42.5881 10.9525 42.4358 10.7655C42.3749 10.6907 42.2283 10.52 41.489 10.52C40.7934 10.52 40.5706 10.7 40.4798 10.8011C40.3502 10.9455 40.069 11.4084 40.069 12.66V17.36H29.829V13.08C29.829 9.41173 30.746 6.21805 32.8447 3.92855C34.9698 1.61033 38.0287 0.520004 41.669 0.520004C45.3094 0.520004 48.3683 1.61033 50.4934 3.92855C52.5921 6.21805 53.509 9.41173 53.509 13.08V14.16C53.509 16.6023 53.1216 18.7882 52.1596 20.6074C51.7103 21.457 51.1505 22.1983 50.4859 22.8319C52.6913 25.0042 53.509 28.1645 53.509 31.62V34.92C53.509 38.5883 52.5921 41.782 50.4934 44.0715C48.3683 46.3897 45.3094 47.48 41.669 47.48C38.0287 47.48 34.9698 46.3897 32.8447 44.0715C30.746 41.782 29.829 38.5883 29.829 34.92V29.44H40.069V35.34C40.069 36.5916 40.3502 37.0545 40.4798 37.1989C40.5706 37.3 40.7934 37.48 41.489 37.48C42.2297 37.48 42.3812 37.3083 42.4422 37.2342C42.5901 37.0545 42.909 36.4459 42.909 34.74V31.44C42.909 29.6268 42.5837 28.8837 42.3365 28.5865C42.1701 28.3865 41.798 28.1 40.589 28.1H36.369V18.1ZM48.8581 24.052C48.3009 23.5504 47.6472 23.1308 46.889 22.8C47.6531 22.4828 48.3168 22.0791 48.8841 21.5862C50.6779 20.0278 51.509 17.5787 51.509 14.16V13.08C51.509 6.36 48.149 2.52 41.669 2.52C35.189 2.52 31.829 6.36 31.829 13.08V15.36H38.069V12.66C38.069 9.66 39.389 8.52 41.489 8.52C43.589 8.52 44.909 9.54 44.909 13.32V15.66C44.909 19.02 43.409 20.1 40.949 20.1H38.369V26.1H40.589C43.589 26.1 44.909 27.54 44.909 31.44V34.74C44.909 38.46 43.589 39.48 41.489 39.48C39.389 39.48 38.069 38.34 38.069 35.34V31.44H31.829V34.92C31.829 41.64 35.189 45.48 41.669 45.48C48.149 45.48 51.509 41.64 51.509 34.92V31.62C51.509 28.3388 50.7259 25.7339 48.8581 24.052ZM12.88 8.52C10.78 8.52 9.45999 9.66 9.45999 12.66V35.34C9.45999 38.34 10.78 39.48 12.88 39.48C14.98 39.48 16.3 38.34 16.3 35.34V12.66C16.3 9.66 14.98 8.52 12.88 8.52ZM12.88 45.48C6.39999 45.48 2.85999 41.64 2.85999 34.92V13.08C2.85999 6.36 6.39999 2.52 12.88 2.52C19.36 2.52 22.9 6.36 22.9 13.08V34.92C22.9 41.64 19.36 45.48 12.88 45.48Z" fill="url(#paint0_linear)"/>
<defs>
<linearGradient id="paint0_linear" x1="30" y1="-2.54615e-08" x2="30" y2="48" gradientUnits="userSpaceOnUse">
<stop stop-color="#F2C94C"/>
<stop offset="1" stop-color="#F2C94C" stop-opacity="0.5"/>
</linearGradient>
</defs>
</svg>
